<?xml version="1.0" encoding="utf-8"?>
<!-- Generator: Adobe Illustrator 19.1.0, SVG Export Plug-In . SVG Version: 6.00 Build 0)  -->
<!DOCTYPE svg PUBLIC "-//W3C//DTD SVG 1.1//EN" "http://www.w3.org/Graphics/SVG/1.1/DTD/svg11.dtd">
<svg version="1.1" xmlns="http://www.w3.org/2000/svg" xmlns:xlink="http://www.w3.org/1999/xlink" x="0px" y="0px" width="576px"
	 height="576px" viewBox="0 0 576 576" enable-background="new 0 0 576 576" xml:space="preserve">
<g id="GUIDES">
</g>
<g id="home">
</g>
<g id="delete">
</g>
<g id="add">
</g>
<g id="remove">
</g>
<g id="hamburger">
</g>
<g id="tribe">
</g>
<g id="verified">
</g>
<g id="eye">
</g>
<g id="more">
</g>
<g id="more_x5F_2">
</g>
<g id="heart">
</g>
<g id="heart_x5F_fill">
</g>
<g id="mail">
</g>
<g id="search">
</g>
<g id="arrow_x5F_right">
</g>
<g id="arrow_x5F_left">
</g>
<g id="arrow_x5F_down">
</g>
<g id="arrow_x5F_up">
</g>
<g id="pen">
</g>
<g id="pen_x5F_2">
</g>
<g id="cog">
</g>
<g id="image">
</g>
<g id="camera">
</g>
<g id="camera_x5F_fill">
</g>
<g id="user">
</g>
<g id="users_1_">
</g>
<g id="lock">
</g>
<g id="lock_x5F_fill">
</g>
<g id="unlock">
</g>
<g id="unlock_x5F_fill">
</g>
<g id="clock">
</g>
<g id="alert">
	<g>
		<path d="M288,64c59.8,0,116.1,23.3,158.4,65.6C488.7,171.9,512,228.2,512,288s-23.3,116.1-65.6,158.4
			C404.1,488.7,347.8,512,288,512c-59.8,0-116.1-23.3-158.4-65.6C87.3,404.1,64,347.8,64,288s23.3-116.1,65.6-158.4
			C171.9,87.3,228.2,64,288,64 M288,0C128.9,0,0,128.9,0,288s128.9,288,288,288c159.1,0,288-128.9,288-288S447.1,0,288,0L288,0z"/>
	</g>
	<g>
		<circle cx="288" cy="416" r="32"/>
	</g>
	<g>
		<path d="M288,352c-17.7,0-32-14.3-32-32V160c0-17.7,14.3-32,32-32s32,14.3,32,32v160C320,337.7,305.7,352,288,352z"/>
	</g>
</g>
<g id="info">
</g>
<g id="bell">
</g>
<g id="bell_x5F_fill">
</g>
<g id="bookmark">
</g>
<g id="bookmark_x5F_fill">
</g>
<g id="bubbleTEMPLATE_copy_3" display="none">
</g>
<g id="bubble">
</g>
<g id="bubble_1_">
</g>
<g id="bubbles">
</g>
<g id="bubbles_1_">
</g>
<g id="bubbles_x5F_fill">
</g>
<g id="flag">
</g>
<g id="upload">
</g>
<g id="download">
</g>
<g id="some">
</g>
</svg>
