<?xml version="1.0" encoding="utf-8"?>
<!-- Generator: Adobe Illustrator 19.1.0, SVG Export Plug-In . SVG Version: 6.00 Build 0)  -->
<!DOCTYPE svg PUBLIC "-//W3C//DTD SVG 1.1//EN" "http://www.w3.org/Graphics/SVG/1.1/DTD/svg11.dtd">
<svg version="1.1" xmlns="http://www.w3.org/2000/svg" xmlns:xlink="http://www.w3.org/1999/xlink" x="0px" y="0px" width="576px"
	 height="576px" viewBox="0 0 576 576" enable-background="new 0 0 576 576" xml:space="preserve">
<g id="GUIDES">
</g>
<g id="home">
</g>
<g id="delete">
</g>
<g id="add">
</g>
<g id="remove">
</g>
<g id="hamburger">
</g>
<g id="tribe">
</g>
<g id="verified">
</g>
<g id="eye">
</g>
<g id="more">
</g>
<g id="more_x5F_2">
</g>
<g id="heart">
</g>
<g id="heart_x5F_fill">
</g>
<g id="mail">
</g>
<g id="search">
</g>
<g id="arrow_x5F_right">
</g>
<g id="arrow_x5F_left">
	<g>
		<path d="M512,321H64c-17.7,0-32-14.3-32-32s14.3-32,32-32h448c17.7,0,32,14.3,32,32S529.7,321,512,321z"/>
	</g>
	<g>
		<line fill="#1D1D1B" x1="255.5" y1="480.5" x2="64" y2="289"/>
		<path d="M255.5,512.5c-8.2,0-16.4-3.1-22.6-9.4L41.4,311.6c-12.5-12.5-12.5-32.8,0-45.3c12.5-12.5,32.8-12.5,45.3,0l191.5,191.5
			c12.5,12.5,12.5,32.8,0,45.3C271.9,509.4,263.7,512.5,255.5,512.5z"/>
	</g>
	<g>
		<line fill="#1D1D1B" x1="64" y1="289" x2="256.5" y2="96.5"/>
		<path d="M64,321c-8.2,0-16.4-3.1-22.6-9.4c-12.5-12.5-12.5-32.8,0-45.3L233.9,73.9c12.5-12.5,32.8-12.5,45.3,0
			c12.5,12.5,12.5,32.8,0,45.3L86.6,311.6C80.4,317.9,72.2,321,64,321z"/>
	</g>
</g>
<g id="arrow_x5F_down">
</g>
<g id="arrow_x5F_up">
</g>
<g id="pen">
</g>
<g id="pen_x5F_2">
</g>
<g id="cog">
</g>
<g id="image">
</g>
<g id="camera">
</g>
<g id="camera_x5F_fill">
</g>
<g id="user">
</g>
<g id="users_1_">
</g>
<g id="lock">
</g>
<g id="lock_x5F_fill">
</g>
<g id="unlock">
</g>
<g id="unlock_x5F_fill">
</g>
<g id="clock">
</g>
<g id="alert">
</g>
<g id="info">
</g>
<g id="bell">
</g>
<g id="bell_x5F_fill">
</g>
<g id="bookmark">
</g>
<g id="bookmark_x5F_fill">
</g>
<g id="bubbleTEMPLATE_copy_3" display="none">
	<g display="inline">
		<path d="M304-240c59.8,0,116.1,23.3,158.4,65.6C504.7-132.1,528-75.8,528-16c0,59.8-23.3,116.1-65.6,158.4
			C420.1,184.7,363.8,208,304,208c-35,0-68.4-7.8-99.5-23.3l-19.2-9.5l-21.1,3.9l-68.2,12.8l12.8-68.2l3.9-21.1l-9.5-19.2
			C87.8,52.4,80,19,80-16c0-59.8,23.3-116.1,65.6-158.4C187.9-216.7,244.2-240,304-240 M304-304C144.9-304,16-175.1,16-16
			c0,46,10.8,89.4,29.9,128L16,272l160-29.9c38.6,19.2,82,29.9,128,29.9c159.1,0,288-128.9,288-288S463.1-304,304-304L304-304z"/>
	</g>
</g>
<g id="bubble">
</g>
<g id="bubble_1_">
</g>
<g id="bubbles">
</g>
<g id="bubbles_1_">
</g>
<g id="bubbles_x5F_fill">
</g>
<g id="flag">
</g>
<g id="upload">
</g>
<g id="download">
</g>
<g id="some">
</g>
</svg>
