<?xml version="1.0" encoding="utf-8"?>
<!-- Generator: Adobe Illustrator 19.1.0, SVG Export Plug-In . SVG Version: 6.00 Build 0)  -->
<!DOCTYPE svg PUBLIC "-//W3C//DTD SVG 1.1//EN" "http://www.w3.org/Graphics/SVG/1.1/DTD/svg11.dtd">
<svg version="1.1" xmlns="http://www.w3.org/2000/svg" xmlns:xlink="http://www.w3.org/1999/xlink" x="0px" y="0px" width="576px"
	 height="576px" viewBox="0 0 576 576" enable-background="new 0 0 576 576" xml:space="preserve">
<g id="GUIDES">
</g>
<g id="home">
</g>
<g id="delete">
</g>
<g id="add">
</g>
<g id="remove">
</g>
<g id="hamburger">
</g>
<g id="tribe">
</g>
<g id="verified">
</g>
<g id="eye">
</g>
<g id="more">
</g>
<g id="more_x5F_2">
</g>
<g id="heart">
</g>
<g id="heart_x5F_fill">
</g>
<g id="mail">
</g>
<g id="search">
</g>
<g id="arrow_x5F_right">
	<g>
		<path d="M512,320H64c-17.7,0-32-14.3-32-32s14.3-32,32-32h448c17.7,0,32,14.3,32,32S529.7,320,512,320z"/>
	</g>
	<g>
		<line fill="#1D1D1B" x1="320" y1="96" x2="512" y2="288"/>
		<path d="M512,320c-8.2,0-16.4-3.1-22.6-9.4l-192-192c-12.5-12.5-12.5-32.8,0-45.3c12.5-12.5,32.8-12.5,45.3,0l192,192
			c12.5,12.5,12.5,32.8,0,45.3C528.4,316.9,520.2,320,512,320z"/>
	</g>
	<g>
		<line fill="#1D1D1B" x1="512" y1="288" x2="320" y2="480"/>
		<path d="M320,512c-8.2,0-16.4-3.1-22.6-9.4c-12.5-12.5-12.5-32.8,0-45.3l192-192c12.5-12.5,32.8-12.5,45.3,0
			c12.5,12.5,12.5,32.8,0,45.3l-192,192C336.4,508.9,328.2,512,320,512z"/>
	</g>
</g>
<g id="arrow_x5F_left">
</g>
<g id="arrow_x5F_down">
</g>
<g id="arrow_x5F_up">
</g>
<g id="pen">
</g>
<g id="pen_x5F_2">
</g>
<g id="cog">
</g>
<g id="image">
</g>
<g id="camera">
</g>
<g id="camera_x5F_fill">
</g>
<g id="user">
</g>
<g id="users_1_">
</g>
<g id="lock">
</g>
<g id="lock_x5F_fill">
</g>
<g id="unlock">
</g>
<g id="unlock_x5F_fill">
</g>
<g id="clock">
</g>
<g id="alert">
</g>
<g id="info">
</g>
<g id="bell">
</g>
<g id="bell_x5F_fill">
</g>
<g id="bookmark">
</g>
<g id="bookmark_x5F_fill">
</g>
<g id="bubbleTEMPLATE_copy_3" display="none">
</g>
<g id="bubble">
</g>
<g id="bubble_1_">
</g>
<g id="bubbles">
</g>
<g id="bubbles_1_">
</g>
<g id="bubbles_x5F_fill">
</g>
<g id="flag">
</g>
<g id="upload">
</g>
<g id="download">
</g>
<g id="some">
</g>
</svg>
