<?xml version="1.0" encoding="utf-8"?>
<!-- Generator: Adobe Illustrator 19.1.0, SVG Export Plug-In . SVG Version: 6.00 Build 0)  -->
<!DOCTYPE svg PUBLIC "-//W3C//DTD SVG 1.1//EN" "http://www.w3.org/Graphics/SVG/1.1/DTD/svg11.dtd">
<svg version="1.1" xmlns="http://www.w3.org/2000/svg" xmlns:xlink="http://www.w3.org/1999/xlink" x="0px" y="0px" width="576px"
	 height="576px" viewBox="0 0 576 576" enable-background="new 0 0 576 576" xml:space="preserve">
<g id="GUIDES">
</g>
<g id="home">
</g>
<g id="delete">
</g>
<g id="add">
</g>
<g id="remove">
</g>
<g id="hamburger">
</g>
<g id="tribe">
</g>
<g id="verified">
</g>
<g id="eye">
</g>
<g id="more">
</g>
<g id="more_x5F_2">
</g>
<g id="heart">
</g>
<g id="heart_x5F_fill">
</g>
<g id="mail">
</g>
<g id="search">
</g>
<g id="arrow_x5F_right">
</g>
<g id="arrow_x5F_left">
</g>
<g id="arrow_x5F_down">
</g>
<g id="arrow_x5F_up">
</g>
<g id="pen">
</g>
<g id="pen_x5F_2">
</g>
<g id="cog">
</g>
<g id="image">
</g>
<g id="camera">
</g>
<g id="camera_x5F_fill">
</g>
<g id="user">
</g>
<g id="users_1_">
</g>
<g id="lock">
</g>
<g id="lock_x5F_fill">
</g>
<g id="unlock">
</g>
<g id="unlock_x5F_fill">
</g>
<g id="clock">
</g>
<g id="alert">
</g>
<g id="info">
</g>
<g id="bell">
	<g>
		<path d="M512,384V256c0-69.5-20.1-132.9-56.7-178.4C435.6,53,411.6,33.9,384,20.7C355.1,7,322.8,0,288,0s-67.1,7-96,20.7
			c-27.7,13.2-51.7,32.3-71.4,56.9C84.1,123.1,64,186.5,64,256v128c-17.7,0-32,14.3-32,32s14.3,32,32,32h448c17.7,0,32-14.3,32-32
			S529.7,384,512,384z M128,256c0-55,15.1-104.2,42.6-138.4c13.6-17,30.1-30.1,49-39.1C239.8,68.9,262.8,64,288,64
			s48.2,4.9,68.4,14.5c18.9,9,35.4,22.2,49,39.1C432.9,151.8,448,201,448,256v128H128V256z"/>
		<path d="M288,512c-29.8,0-54.9-21-62-48h-65c7.9,63,61.8,112,127,112c65.2,0,119.1-49,127-112h-65C342.9,491,317.8,512,288,512z"
			/>
	</g>
</g>
<g id="bell_x5F_fill">
</g>
<g id="bookmark">
</g>
<g id="bookmark_x5F_fill">
</g>
<g id="bubbleTEMPLATE_copy_3" display="none">
</g>
<g id="bubble">
</g>
<g id="bubble_1_">
</g>
<g id="bubbles">
</g>
<g id="bubbles_1_">
</g>
<g id="bubbles_x5F_fill">
</g>
<g id="flag">
</g>
<g id="upload">
</g>
<g id="download">
</g>
<g id="some">
</g>
</svg>
