<?xml version="1.0" encoding="utf-8"?>
<!-- Generator: Adobe Illustrator 19.1.0, SVG Export Plug-In . SVG Version: 6.00 Build 0)  -->
<!DOCTYPE svg PUBLIC "-//W3C//DTD SVG 1.1//EN" "http://www.w3.org/Graphics/SVG/1.1/DTD/svg11.dtd">
<svg version="1.1" xmlns="http://www.w3.org/2000/svg" xmlns:xlink="http://www.w3.org/1999/xlink" x="0px" y="0px" width="576px"
	 height="576px" viewBox="0 0 576 576" enable-background="new 0 0 576 576" xml:space="preserve">
<g id="GUIDES">
</g>
<g id="home">
</g>
<g id="delete">
</g>
<g id="add">
</g>
<g id="remove">
</g>
<g id="hamburger">
</g>
<g id="tribe">
</g>
<g id="verified">
</g>
<g id="eye">
</g>
<g id="more">
</g>
<g id="more_x5F_2">
</g>
<g id="heart">
</g>
<g id="heart_x5F_fill">
</g>
<g id="mail">
</g>
<g id="search">
</g>
<g id="arrow_x5F_right">
</g>
<g id="arrow_x5F_left">
</g>
<g id="arrow_x5F_down">
</g>
<g id="arrow_x5F_up">
</g>
<g id="pen">
</g>
<g id="pen_x5F_2">
</g>
<g id="cog">
</g>
<g id="image">
</g>
<g id="camera">
</g>
<g id="camera_x5F_fill">
</g>
<g id="user">
</g>
<g id="users_1_">
</g>
<g id="lock">
</g>
<g id="lock_x5F_fill">
</g>
<g id="unlock">
</g>
<g id="unlock_x5F_fill">
</g>
<g id="clock">
</g>
<g id="alert">
</g>
<g id="info">
</g>
<g id="bell">
</g>
<g id="bell_x5F_fill">
</g>
<g id="bookmark">
</g>
<g id="bookmark_x5F_fill">
</g>
<g id="bubbleTEMPLATE_copy_3" display="none">
</g>
<g id="bubble">
</g>
<g id="bubble_1_">
</g>
<g id="bubbles">
</g>
<g id="bubbles_1_">
	<g>
		<g>
			<path d="M192,192C86,192,0,278,0,384c0,30.6,7.2,59.6,20,85.3L0,576l106.7-20c25.7,12.8,54.7,20,85.3,20c106,0,192-86,192-192
				S298,192,192,192z M282.5,474.5C258.3,498.7,226.2,512,192,512c-20,0-39.1-4.5-56.8-13.3c-12.5-6.2-26.6-8.2-40.2-5.6l0,0
				l-14.8,2.8l2.8-14.8c2.6-13.7,0.6-27.8-5.6-40.2h0C68.5,423.1,64,404,64,384c0-34.2,13.3-66.3,37.5-90.5
				c24.2-24.2,56.3-37.5,90.5-37.5s66.3,13.3,90.5,37.5c24.2,24.2,37.5,56.3,37.5,90.5S306.7,450.3,282.5,474.5z"/>
		</g>
		<g>
			<path d="M556,277.3c12.8-25.8,20-54.8,20-85.6C575.9,85.5,488.4-1,382.2,0c-99.8,0.9-181.4,78-189.5,176
				c22.1,0.1,43.5,3.6,63.5,10.1c1.4-32,14.6-61.9,37.4-84.6C317.7,77.3,349.8,64,384,64s66.3,13.3,90.5,37.5
				c24.2,24.2,37.5,56.3,37.5,90.5c0,20-4.5,39.1-13.3,56.8c-6.2,12.5-8.1,26.6-5.6,40.2v0l2.8,14.8l-14.8-2.8l0,0
				c-13.7-2.6-27.8-0.6-40.2,5.6c-16,7.9-33.1,12.3-51,13.1c6.5,20,10.1,41.3,10.1,63.5c24.7-2,48.1-8.8,69.3-19.3L576,384
				L556,277.3z"/>
		</g>
	</g>
</g>
<g id="bubbles_x5F_fill">
</g>
<g id="flag">
</g>
<g id="upload">
</g>
<g id="download">
</g>
<g id="some">
</g>
</svg>
